<svg width="2976" height="848" xmlns="http://www.w3.org/2000/svg" xmlns:xlink="http://www.w3.org/1999/xlink" xml:space="preserve" overflow="hidden"><defs><linearGradient x1="207.481" y1="-0.000113688" x2="207.481" y2="363.718" gradientUnits="userSpaceOnUse" spreadMethod="reflect" id="fill0"><stop offset="0" stop-color="#27F94A"/><stop offset="0.00561798" stop-color="#27F84B"/><stop offset="0.011236" stop-color="#27F84D"/><stop offset="0.0168539" stop-color="#27F84F"/><stop offset="0.0224719" stop-color="#27F851"/><stop offset="0.0280899" stop-color="#27F853"/><stop offset="0.0337079" stop-color="#27F855"/><stop offset="0.0393258" stop-color="#28F856"/><stop offset="0.0449438" stop-color="#28F858"/><stop offset="0.0505618" stop-color="#28F85A"/><stop offset="0.0561798" stop-color="#28F85C"/><stop offset="0.0617978" stop-color="#28F85E"/><stop offset="0.0674157" stop-color="#28F85F"/><stop offset="0.0730337" stop-color="#28F861"/><stop offset="0.0786517" stop-color="#29F863"/><stop offset="0.0842697" stop-color="#29F865"/><stop offset="0.0898876" stop-color="#29F866"/><stop offset="0.0955056" stop-color="#29F868"/><stop offset="0.101124" stop-color="#29F86A"/><stop offset="0.106742" stop-color="#29F86C"/><stop offset="0.11236" stop-color="#2AF86D"/><stop offset="0.117978" stop-color="#2AF86F"/><stop offset="0.123596" stop-color="#2AF871"/><stop offset="0.129213" stop-color="#2AF872"/><stop offset="0.134831" stop-color="#2AF874"/><stop offset="0.140449" stop-color="#2AF876"/><stop offset="0.146067" stop-color="#2AF877"/><stop offset="0.151685" stop-color="#2AF879"/><stop offset="0.157303" stop-color="#2BF87B"/><stop offset="0.162921" stop-color="#2BF87C"/><stop offset="0.168539" stop-color="#2BF87E"/><stop offset="0.174157" stop-color="#2BF87F"/><stop offset="0.179775" stop-color="#2BF881"/><stop offset="0.185393" stop-color="#2BF883"/><stop offset="0.191011" stop-color="#2BF884"/><stop offset="0.196629" stop-color="#2CF886"/><stop offset="0.202247" stop-color="#2CF887"/><stop offset="0.207865" stop-color="#2CF889"/><stop offset="0.213483" stop-color="#2CF88A"/><stop offset="0.219101" stop-color="#2CF88C"/><stop offset="0.224719" stop-color="#2CF88D"/><stop offset="0.230337" stop-color="#2CF88F"/><stop offset="0.235955" stop-color="#2CF890"/><stop offset="0.241573" stop-color="#2DF892"/><stop offset="0.247191" stop-color="#2DF893"/><stop offset="0.252809" stop-color="#2DF895"/><stop offset="0.258427" stop-color="#2DF796"/><stop offset="0.264045" stop-color="#2DF798"/><stop offset="0.269663" stop-color="#2DF799"/><stop offset="0.275281" stop-color="#2DF79B"/><stop offset="0.280899" stop-color="#2DF79C"/><stop offset="0.286517" stop-color="#2EF79D"/><stop offset="0.292135" stop-color="#2EF79F"/><stop offset="0.297753" stop-color="#2EF7A0"/><stop offset="0.303371" stop-color="#2EF7A2"/><stop offset="0.308989" stop-color="#2EF7A3"/><stop offset="0.314607" stop-color="#2EF7A4"/><stop offset="0.320225" stop-color="#2EF7A6"/><stop offset="0.325843" stop-color="#2EF7A7"/><stop offset="0.331461" stop-color="#2EF7A8"/><stop offset="0.337079" stop-color="#2FF7AA"/><stop offset="0.342697" stop-color="#2FF7AB"/><stop offset="0.348315" stop-color="#2FF7AC"/><stop offset="0.353933" stop-color="#2FF7AE"/><stop offset="0.359551" stop-color="#2FF7AF"/><stop offset="0.365169" stop-color="#2FF7B0"/><stop offset="0.370787" stop-color="#2FF6B1"/><stop offset="0.376404" stop-color="#2FF6B3"/><stop offset="0.382022" stop-color="#2FF6B4"/><stop offset="0.38764" stop-color="#30F6B5"/><stop offset="0.393258" stop-color="#30F6B6"/><stop offset="0.398876" stop-color="#30F6B8"/><stop offset="0.404494" stop-color="#30F6B9"/><stop offset="0.410112" stop-color="#30F6BA"/><stop offset="0.41573" stop-color="#30F6BB"/><stop offset="0.421348" stop-color="#30F6BC"/><stop offset="0.426966" stop-color="#30F6BD"/><stop offset="0.432584" stop-color="#30F6BF"/><stop offset="0.438202" stop-color="#30F6C0"/><stop offset="0.44382" stop-color="#31F6C1"/><stop offset="0.449438" stop-color="#31F6C2"/><stop offset="0.455056" stop-color="#31F6C3"/><stop offset="0.460674" stop-color="#31F5C4"/><stop offset="0.466292" stop-color="#31F5C5"/><stop offset="0.47191" stop-color="#31F5C6"/><stop offset="0.477528" stop-color="#31F5C8"/><stop offset="0.483146" stop-color="#31F5C9"/><stop offset="0.488764" stop-color="#31F5CA"/><stop offset="0.494382" stop-color="#31F5CB"/><stop offset="0.5" stop-color="#31F5CC"/><stop offset="0.505618" stop-color="#31F5CD"/><stop offset="0.511236" stop-color="#32F5CE"/><stop offset="0.516854" stop-color="#32F5CF"/><stop offset="0.522472" stop-color="#32F5D0"/><stop offset="0.52809" stop-color="#32F5D1"/><stop offset="0.533708" stop-color="#32F4D2"/><stop offset="0.539326" stop-color="#32F4D3"/><stop offset="0.544944" stop-color="#32F4D4"/><stop offset="0.550562" stop-color="#32F4D5"/><stop offset="0.55618" stop-color="#32F4D5"/><stop offset="0.561798" stop-color="#32F4D6"/><stop offset="0.567416" stop-color="#32F4D7"/><stop offset="0.573034" stop-color="#32F4D8"/><stop offset="0.578652" stop-color="#33F4D9"/><stop offset="0.58427" stop-color="#33F4DA"/><stop offset="0.589888" stop-color="#33F4DB"/><stop offset="0.595506" stop-color="#33F4DC"/><stop offset="0.601124" stop-color="#33F3DD"/><stop offset="0.606742" stop-color="#33F3DD"/><stop offset="0.61236" stop-color="#33F3DE"/><stop offset="0.617977" stop-color="#33F3DF"/><stop offset="0.623595" stop-color="#33F3E0"/><stop offset="0.629214" stop-color="#33F3E1"/><stop offset="0.634831" stop-color="#33F3E1"/><stop offset="0.640449" stop-color="#33F3E2"/><stop offset="0.646067" stop-color="#33F3E3"/><stop offset="0.651685" stop-color="#33F3E4"/><stop offset="0.657303" stop-color="#33F3E4"/><stop offset="0.662921" stop-color="#34F2E5"/><stop offset="0.668539" stop-color="#34F2E6"/><stop offset="0.674157" stop-color="#34F2E7"/><stop offset="0.679775" stop-color="#34F2E7"/><stop offset="0.685393" stop-color="#34F2E8"/><stop offset="0.691011" stop-color="#34F2E9"/><stop offset="0.696629" stop-color="#34F2E9"/><stop offset="0.702247" stop-color="#34F2EA"/><stop offset="0.707865" stop-color="#34F2EB"/><stop offset="0.713483" stop-color="#34F2EB"/><stop offset="0.719101" stop-color="#34F1EC"/><stop offset="0.724719" stop-color="#34F1ED"/><stop offset="0.730337" stop-color="#34F1ED"/><stop offset="0.735955" stop-color="#34F1EE"/><stop offset="0.741573" stop-color="#34F1EE"/><stop offset="0.747191" stop-color="#34F1EF"/><stop offset="0.752809" stop-color="#34F1EF"/><stop offset="0.758427" stop-color="#34F1F0"/><stop offset="0.764045" stop-color="#34F1F1"/><stop offset="0.769663" stop-color="#35F1F1"/><stop offset="0.775281" stop-color="#35F0F2"/><stop offset="0.780899" stop-color="#35F0F2"/><stop offset="0.786517" stop-color="#35F0F3"/><stop offset="0.792135" stop-color="#35F0F3"/><stop offset="0.797753" stop-color="#35F0F4"/><stop offset="0.803371" stop-color="#35F0F4"/><stop offset="0.808989" stop-color="#35F0F4"/><stop offset="0.814607" stop-color="#35F0F5"/><stop offset="0.820225" stop-color="#35F0F5"/><stop offset="0.825843" stop-color="#35EFF6"/><stop offset="0.831461" stop-color="#35EFF6"/><stop offset="0.837079" stop-color="#35EFF7"/><stop offset="0.842697" stop-color="#35EFF7"/><stop offset="0.848315" stop-color="#35EFF7"/><stop offset="0.853933" stop-color="#35EFF8"/><stop offset="0.859551" stop-color="#35EFF8"/><stop offset="0.865169" stop-color="#35EFF8"/><stop offset="0.870786" stop-color="#35EEF9"/><stop offset="0.876405" stop-color="#35EEF9"/><stop offset="0.882023" stop-color="#35EEF9"/><stop offset="0.88764" stop-color="#35EEFA"/><stop offset="0.893258" stop-color="#35EEFA"/><stop offset="0.898876" stop-color="#35EEFA"/><stop offset="0.904494" stop-color="#35EEFA"/><stop offset="0.910112" stop-color="#35EEFB"/><stop offset="0.91573" stop-color="#35EDFB"/><stop offset="0.921348" stop-color="#35EDFB"/><stop offset="0.926966" stop-color="#35EDFB"/><stop offset="0.932584" stop-color="#35EDFB"/><stop offset="0.938202" stop-color="#35EDFC"/><stop offset="0.94382" stop-color="#35EDFC"/><stop offset="0.949438" stop-color="#35EDFC"/><stop offset="0.955056" stop-color="#35EDFC"/><stop offset="0.960674" stop-color="#35ECFC"/><stop offset="0.966292" stop-color="#35ECFC"/><stop offset="0.97191" stop-color="#35ECFC"/><stop offset="0.977528" stop-color="#35ECFC"/><stop offset="0.983146" stop-color="#35ECFC"/><stop offset="0.988764" stop-color="#35ECFC"/><stop offset="0.994382" stop-color="#35ECFC"/><stop offset="1" stop-color="#36ECFD"/></linearGradient><linearGradient x1="1303.12" y1="1753.99" x2="387.884" y2="986.014" gradientUnits="userSpaceOnUse" spreadMethod="reflect" id="stroke1"><stop offset="0" stop-color="#36ECFD"/><stop offset="0.00561798" stop-color="#35ECFC"/><stop offset="0.011236" stop-color="#35ECFC"/><stop offset="0.0168539" stop-color="#35ECFC"/><stop offset="0.0224719" stop-color="#35ECFC"/><stop offset="0.0280899" stop-color="#35ECFC"/><stop offset="0.0337079" stop-color="#35ECFC"/><stop offset="0.0393258" stop-color="#35ECFC"/><stop offset="0.0449438" stop-color="#35EDFC"/><stop offset="0.0505618" stop-color="#35EDFC"/><stop offset="0.0561798" stop-color="#35EDFC"/><stop offset="0.0617978" stop-color="#35EDFC"/><stop offset="0.0674157" stop-color="#35EDFB"/><stop offset="0.0730337" stop-color="#35EDFB"/><stop offset="0.0786517" stop-color="#35EDFB"/><stop offset="0.0842697" stop-color="#35EDFB"/><stop offset="0.0898876" stop-color="#35EEFB"/><stop offset="0.0955056" stop-color="#35EEFA"/><stop offset="0.101124" stop-color="#35EEFA"/><stop offset="0.106742" stop-color="#35EEFA"/><stop offset="0.11236" stop-color="#35EEFA"/><stop offset="0.117978" stop-color="#35EEF9"/><stop offset="0.123596" stop-color="#35EEF9"/><stop offset="0.129213" stop-color="#35EEF9"/><stop offset="0.134831" stop-color="#35EFF8"/><stop offset="0.140449" stop-color="#35EFF8"/><stop offset="0.146067" stop-color="#35EFF8"/><stop offset="0.151685" stop-color="#35EFF7"/><stop offset="0.157303" stop-color="#35EFF7"/><stop offset="0.162921" stop-color="#35EFF7"/><stop offset="0.168539" stop-color="#35EFF6"/><stop offset="0.174157" stop-color="#35EFF6"/><stop offset="0.179775" stop-color="#35F0F5"/><stop offset="0.185393" stop-color="#35F0F5"/><stop offset="0.191011" stop-color="#35F0F4"/><stop offset="0.196629" stop-color="#35F0F4"/><stop offset="0.202247" stop-color="#35F0F4"/><stop offset="0.207865" stop-color="#35F0F3"/><stop offset="0.213483" stop-color="#35F0F3"/><stop offset="0.219101" stop-color="#35F0F2"/><stop offset="0.224719" stop-color="#35F0F2"/><stop offset="0.230337" stop-color="#35F1F1"/><stop offset="0.235955" stop-color="#34F1F1"/><stop offset="0.241573" stop-color="#34F1F0"/><stop offset="0.247191" stop-color="#34F1EF"/><stop offset="0.252809" stop-color="#34F1EF"/><stop offset="0.258427" stop-color="#34F1EE"/><stop offset="0.264045" stop-color="#34F1EE"/><stop offset="0.269663" stop-color="#34F1ED"/><stop offset="0.275281" stop-color="#34F1ED"/><stop offset="0.280899" stop-color="#34F1EC"/><stop offset="0.286517" stop-color="#34F2EB"/><stop offset="0.292135" stop-color="#34F2EB"/><stop offset="0.297753" stop-color="#34F2EA"/><stop offset="0.303371" stop-color="#34F2E9"/><stop offset="0.308989" stop-color="#34F2E9"/><stop offset="0.314607" stop-color="#34F2E8"/><stop offset="0.320225" stop-color="#34F2E7"/><stop offset="0.325843" stop-color="#34F2E7"/><stop offset="0.331461" stop-color="#34F2E6"/><stop offset="0.337079" stop-color="#34F2E5"/><stop offset="0.342697" stop-color="#33F3E4"/><stop offset="0.348315" stop-color="#33F3E4"/><stop offset="0.353933" stop-color="#33F3E3"/><stop offset="0.359551" stop-color="#33F3E2"/><stop offset="0.365169" stop-color="#33F3E1"/><stop offset="0.370787" stop-color="#33F3E1"/><stop offset="0.376404" stop-color="#33F3E0"/><stop offset="0.382022" stop-color="#33F3DF"/><stop offset="0.38764" stop-color="#33F3DE"/><stop offset="0.393258" stop-color="#33F3DD"/><stop offset="0.398876" stop-color="#33F3DD"/><stop offset="0.404494" stop-color="#33F4DC"/><stop offset="0.410112" stop-color="#33F4DB"/><stop offset="0.41573" stop-color="#33F4DA"/><stop offset="0.421348" stop-color="#33F4D9"/><stop offset="0.426966" stop-color="#32F4D8"/><stop offset="0.432584" stop-color="#32F4D7"/><stop offset="0.438202" stop-color="#32F4D6"/><stop offset="0.44382" stop-color="#32F4D5"/><stop offset="0.449438" stop-color="#32F4D5"/><stop offset="0.455056" stop-color="#32F4D4"/><stop offset="0.460674" stop-color="#32F4D3"/><stop offset="0.466292" stop-color="#32F4D2"/><stop offset="0.47191" stop-color="#32F5D1"/><stop offset="0.477528" stop-color="#32F5D0"/><stop offset="0.483146" stop-color="#32F5CF"/><stop offset="0.488764" stop-color="#32F5CE"/><stop offset="0.494382" stop-color="#31F5CD"/><stop offset="0.5" stop-color="#31F5CC"/><stop offset="0.505618" stop-color="#31F5CB"/><stop offset="0.511236" stop-color="#31F5CA"/><stop offset="0.516854" stop-color="#31F5C9"/><stop offset="0.522472" stop-color="#31F5C8"/><stop offset="0.52809" stop-color="#31F5C6"/><stop offset="0.533708" stop-color="#31F5C5"/><stop offset="0.539326" stop-color="#31F5C4"/><stop offset="0.544944" stop-color="#31F6C3"/><stop offset="0.550562" stop-color="#31F6C2"/><stop offset="0.55618" stop-color="#31F6C1"/><stop offset="0.561798" stop-color="#30F6C0"/><stop offset="0.567416" stop-color="#30F6BF"/><stop offset="0.573034" stop-color="#30F6BD"/><stop offset="0.578652" stop-color="#30F6BC"/><stop offset="0.58427" stop-color="#30F6BB"/><stop offset="0.589888" stop-color="#30F6BA"/><stop offset="0.595506" stop-color="#30F6B9"/><stop offset="0.601124" stop-color="#30F6B8"/><stop offset="0.606742" stop-color="#30F6B6"/><stop offset="0.61236" stop-color="#30F6B5"/><stop offset="0.617977" stop-color="#2FF6B4"/><stop offset="0.623595" stop-color="#2FF6B3"/><stop offset="0.629214" stop-color="#2FF6B1"/><stop offset="0.634831" stop-color="#2FF7B0"/><stop offset="0.640449" stop-color="#2FF7AF"/><stop offset="0.646067" stop-color="#2FF7AE"/><stop offset="0.651685" stop-color="#2FF7AC"/><stop offset="0.657303" stop-color="#2FF7AB"/><stop offset="0.662921" stop-color="#2FF7AA"/><stop offset="0.668539" stop-color="#2EF7A8"/><stop offset="0.674157" stop-color="#2EF7A7"/><stop offset="0.679775" stop-color="#2EF7A6"/><stop offset="0.685393" stop-color="#2EF7A4"/><stop offset="0.691011" stop-color="#2EF7A3"/><stop offset="0.696629" stop-color="#2EF7A2"/><stop offset="0.702247" stop-color="#2EF7A0"/><stop offset="0.707865" stop-color="#2EF79F"/><stop offset="0.713483" stop-color="#2EF79D"/><stop offset="0.719101" stop-color="#2DF79C"/><stop offset="0.724719" stop-color="#2DF79B"/><stop offset="0.730337" stop-color="#2DF799"/><stop offset="0.735955" stop-color="#2DF798"/><stop offset="0.741573" stop-color="#2DF796"/><stop offset="0.747191" stop-color="#2DF895"/><stop offset="0.752809" stop-color="#2DF893"/><stop offset="0.758427" stop-color="#2DF892"/><stop offset="0.764045" stop-color="#2CF890"/><stop offset="0.769663" stop-color="#2CF88F"/><stop offset="0.775281" stop-color="#2CF88D"/><stop offset="0.780899" stop-color="#2CF88C"/><stop offset="0.786517" stop-color="#2CF88A"/><stop offset="0.792135" stop-color="#2CF889"/><stop offset="0.797753" stop-color="#2CF887"/><stop offset="0.803371" stop-color="#2CF886"/><stop offset="0.808989" stop-color="#2BF884"/><stop offset="0.814607" stop-color="#2BF883"/><stop offset="0.820225" stop-color="#2BF881"/><stop offset="0.825843" stop-color="#2BF87F"/><stop offset="0.831461" stop-color="#2BF87E"/><stop offset="0.837079" stop-color="#2BF87C"/><stop offset="0.842697" stop-color="#2BF87B"/><stop offset="0.848315" stop-color="#2AF879"/><stop offset="0.853933" stop-color="#2AF877"/><stop offset="0.859551" stop-color="#2AF876"/><stop offset="0.865169" stop-color="#2AF874"/><stop offset="0.870786" stop-color="#2AF872"/><stop offset="0.876405" stop-color="#2AF871"/><stop offset="0.882023" stop-color="#2AF86F"/><stop offset="0.88764" stop-color="#2AF86D"/><stop offset="0.893258" stop-color="#29F86C"/><stop offset="0.898876" stop-color="#29F86A"/><stop offset="0.904494" stop-color="#29F868"/><stop offset="0.910112" stop-color="#29F866"/><stop offset="0.91573" stop-color="#29F865"/><stop offset="0.921348" stop-color="#29F863"/><stop offset="0.926966" stop-color="#28F861"/><stop offset="0.932584" stop-color="#28F85F"/><stop offset="0.938202" stop-color="#28F85E"/><stop offset="0.94382" stop-color="#28F85C"/><stop offset="0.949438" stop-color="#28F85A"/><stop offset="0.955056" stop-color="#28F858"/><stop offset="0.960674" stop-color="#28F856"/><stop offset="0.966292" stop-color="#27F855"/><stop offset="0.97191" stop-color="#27F853"/><stop offset="0.977528" stop-color="#27F851"/><stop offset="0.983146" stop-color="#27F84F"/><stop offset="0.988764" stop-color="#27F84D"/><stop offset="0.994382" stop-color="#27F84B"/><stop offset="1" stop-color="#27F94A"/></linearGradient><linearGradient x1="674.25" y1="1153.75" x2="1169.75" y2="1649.25" gradientUnits="userSpaceOnUse" spreadMethod="reflect" id="fill2"><stop offset="0" stop-color="#27F94A"/><stop offset="0.00561798" stop-color="#27F84B"/><stop offset="0.011236" stop-color="#27F84D"/><stop offset="0.0168539" stop-color="#27F84F"/><stop offset="0.0224719" stop-color="#27F851"/><stop offset="0.0280899" stop-color="#27F853"/><stop offset="0.0337079" stop-color="#27F855"/><stop offset="0.0393258" stop-color="#28F856"/><stop offset="0.0449438" stop-color="#28F858"/><stop offset="0.0505618" stop-color="#28F85A"/><stop offset="0.0561798" stop-color="#28F85C"/><stop offset="0.0617978" stop-color="#28F85E"/><stop offset="0.0674157" stop-color="#28F85F"/><stop offset="0.0730337" stop-color="#28F861"/><stop offset="0.0786517" stop-color="#29F863"/><stop offset="0.0842697" stop-color="#29F865"/><stop offset="0.0898876" stop-color="#29F866"/><stop offset="0.0955056" stop-color="#29F868"/><stop offset="0.101124" stop-color="#29F86A"/><stop offset="0.106742" stop-color="#29F86C"/><stop offset="0.11236" stop-color="#2AF86D"/><stop offset="0.117978" stop-color="#2AF86F"/><stop offset="0.123596" stop-color="#2AF871"/><stop offset="0.129213" stop-color="#2AF872"/><stop offset="0.134831" stop-color="#2AF874"/><stop offset="0.140449" stop-color="#2AF876"/><stop offset="0.146067" stop-color="#2AF877"/><stop offset="0.151685" stop-color="#2AF879"/><stop offset="0.157303" stop-color="#2BF87B"/><stop offset="0.162921" stop-color="#2BF87C"/><stop offset="0.168539" stop-color="#2BF87E"/><stop offset="0.174157" stop-color="#2BF87F"/><stop offset="0.179775" stop-color="#2BF881"/><stop offset="0.185393" stop-color="#2BF883"/><stop offset="0.191011" stop-color="#2BF884"/><stop offset="0.196629" stop-color="#2CF886"/><stop offset="0.202247" stop-color="#2CF887"/><stop offset="0.207865" stop-color="#2CF889"/><stop offset="0.213483" stop-color="#2CF88A"/><stop offset="0.219101" stop-color="#2CF88C"/><stop offset="0.224719" stop-color="#2CF88D"/><stop offset="0.230337" stop-color="#2CF88F"/><stop offset="0.235955" stop-color="#2CF890"/><stop offset="0.241573" stop-color="#2DF892"/><stop offset="0.247191" stop-color="#2DF893"/><stop offset="0.252809" stop-color="#2DF895"/><stop offset="0.258427" stop-color="#2DF796"/><stop offset="0.264045" stop-color="#2DF798"/><stop offset="0.269663" stop-color="#2DF799"/><stop offset="0.275281" stop-color="#2DF79B"/><stop offset="0.280899" stop-color="#2DF79C"/><stop offset="0.286517" stop-color="#2EF79D"/><stop offset="0.292135" stop-color="#2EF79F"/><stop offset="0.297753" stop-color="#2EF7A0"/><stop offset="0.303371" stop-color="#2EF7A2"/><stop offset="0.308989" stop-color="#2EF7A3"/><stop offset="0.314607" stop-color="#2EF7A4"/><stop offset="0.320225" stop-color="#2EF7A6"/><stop offset="0.325843" stop-color="#2EF7A7"/><stop offset="0.331461" stop-color="#2EF7A8"/><stop offset="0.337079" stop-color="#2FF7AA"/><stop offset="0.342697" stop-color="#2FF7AB"/><stop offset="0.348315" stop-color="#2FF7AC"/><stop offset="0.353933" stop-color="#2FF7AE"/><stop offset="0.359551" stop-color="#2FF7AF"/><stop offset="0.365169" stop-color="#2FF7B0"/><stop offset="0.370787" stop-color="#2FF6B1"/><stop offset="0.376404" stop-color="#2FF6B3"/><stop offset="0.382022" stop-color="#2FF6B4"/><stop offset="0.38764" stop-color="#30F6B5"/><stop offset="0.393258" stop-color="#30F6B6"/><stop offset="0.398876" stop-color="#30F6B8"/><stop offset="0.404494" stop-color="#30F6B9"/><stop offset="0.410112" stop-color="#30F6BA"/><stop offset="0.41573" stop-color="#30F6BB"/><stop offset="0.421348" stop-color="#30F6BC"/><stop offset="0.426966" stop-color="#30F6BD"/><stop offset="0.432584" stop-color="#30F6BF"/><stop offset="0.438202" stop-color="#30F6C0"/><stop offset="0.44382" stop-color="#31F6C1"/><stop offset="0.449438" stop-color="#31F6C2"/><stop offset="0.455056" stop-color="#31F6C3"/><stop offset="0.460674" stop-color="#31F5C4"/><stop offset="0.466292" stop-color="#31F5C5"/><stop offset="0.47191" stop-color="#31F5C6"/><stop offset="0.477528" stop-color="#31F5C8"/><stop offset="0.483146" stop-color="#31F5C9"/><stop offset="0.488764" stop-color="#31F5CA"/><stop offset="0.494382" stop-color="#31F5CB"/><stop offset="0.5" stop-color="#31F5CC"/><stop offset="0.505618" stop-color="#31F5CD"/><stop offset="0.511236" stop-color="#32F5CE"/><stop offset="0.516854" stop-color="#32F5CF"/><stop offset="0.522472" stop-color="#32F5D0"/><stop offset="0.52809" stop-color="#32F5D1"/><stop offset="0.533708" stop-color="#32F4D2"/><stop offset="0.539326" stop-color="#32F4D3"/><stop offset="0.544944" stop-color="#32F4D4"/><stop offset="0.550562" stop-color="#32F4D5"/><stop offset="0.55618" stop-color="#32F4D5"/><stop offset="0.561798" stop-color="#32F4D6"/><stop offset="0.567416" stop-color="#32F4D7"/><stop offset="0.573034" stop-color="#32F4D8"/><stop offset="0.578652" stop-color="#33F4D9"/><stop offset="0.58427" stop-color="#33F4DA"/><stop offset="0.589888" stop-color="#33F4DB"/><stop offset="0.595506" stop-color="#33F4DC"/><stop offset="0.601124" stop-color="#33F3DD"/><stop offset="0.606742" stop-color="#33F3DD"/><stop offset="0.61236" stop-color="#33F3DE"/><stop offset="0.617977" stop-color="#33F3DF"/><stop offset="0.623595" stop-color="#33F3E0"/><stop offset="0.629214" stop-color="#33F3E1"/><stop offset="0.634831" stop-color="#33F3E1"/><stop offset="0.640449" stop-color="#33F3E2"/><stop offset="0.646067" stop-color="#33F3E3"/><stop offset="0.651685" stop-color="#33F3E4"/><stop offset="0.657303" stop-color="#33F3E4"/><stop offset="0.662921" stop-color="#34F2E5"/><stop offset="0.668539" stop-color="#34F2E6"/><stop offset="0.674157" stop-color="#34F2E7"/><stop offset="0.679775" stop-color="#34F2E7"/><stop offset="0.685393" stop-color="#34F2E8"/><stop offset="0.691011" stop-color="#34F2E9"/><stop offset="0.696629" stop-color="#34F2E9"/><stop offset="0.702247" stop-color="#34F2EA"/><stop offset="0.707865" stop-color="#34F2EB"/><stop offset="0.713483" stop-color="#34F2EB"/><stop offset="0.719101" stop-color="#34F1EC"/><stop offset="0.724719" stop-color="#34F1ED"/><stop offset="0.730337" stop-color="#34F1ED"/><stop offset="0.735955" stop-color="#34F1EE"/><stop offset="0.741573" stop-color="#34F1EE"/><stop offset="0.747191" stop-color="#34F1EF"/><stop offset="0.752809" stop-color="#34F1EF"/><stop offset="0.758427" stop-color="#34F1F0"/><stop offset="0.764045" stop-color="#34F1F1"/><stop offset="0.769663" stop-color="#35F1F1"/><stop offset="0.775281" stop-color="#35F0F2"/><stop offset="0.780899" stop-color="#35F0F2"/><stop offset="0.786517" stop-color="#35F0F3"/><stop offset="0.792135" stop-color="#35F0F3"/><stop offset="0.797753" stop-color="#35F0F4"/><stop offset="0.803371" stop-color="#35F0F4"/><stop offset="0.808989" stop-color="#35F0F4"/><stop offset="0.814607" stop-color="#35F0F5"/><stop offset="0.820225" stop-color="#35F0F5"/><stop offset="0.825843" stop-color="#35EFF6"/><stop offset="0.831461" stop-color="#35EFF6"/><stop offset="0.837079" stop-color="#35EFF7"/><stop offset="0.842697" stop-color="#35EFF7"/><stop offset="0.848315" stop-color="#35EFF7"/><stop offset="0.853933" stop-color="#35EFF8"/><stop offset="0.859551" stop-color="#35EFF8"/><stop offset="0.865169" stop-color="#35EFF8"/><stop offset="0.870786" stop-color="#35EEF9"/><stop offset="0.876405" stop-color="#35EEF9"/><stop offset="0.882023" stop-color="#35EEF9"/><stop offset="0.88764" stop-color="#35EEFA"/><stop offset="0.893258" stop-color="#35EEFA"/><stop offset="0.898876" stop-color="#35EEFA"/><stop offset="0.904494" stop-color="#35EEFA"/><stop offset="0.910112" stop-color="#35EEFB"/><stop offset="0.91573" stop-color="#35EDFB"/><stop offset="0.921348" stop-color="#35EDFB"/><stop offset="0.926966" stop-color="#35EDFB"/><stop offset="0.932584" stop-color="#35EDFB"/><stop offset="0.938202" stop-color="#35EDFC"/><stop offset="0.94382" stop-color="#35EDFC"/><stop offset="0.949438" stop-color="#35EDFC"/><stop offset="0.955056" stop-color="#35EDFC"/><stop offset="0.960674" stop-color="#35ECFC"/><stop offset="0.966292" stop-color="#35ECFC"/><stop offset="0.97191" stop-color="#35ECFC"/><stop offset="0.977528" stop-color="#35ECFC"/><stop offset="0.983146" stop-color="#35ECFC"/><stop offset="0.988764" stop-color="#35ECFC"/><stop offset="0.994382" stop-color="#35ECFC"/><stop offset="1" stop-color="#36ECFD"/></linearGradient></defs><g transform="translate(-421 -946)"><path d="M434.5 1367C434.5 1138.63 619.63 953.5 848 953.5 1076.37 953.5 1261.5 1138.63 1261.5 1367 1261.5 1595.37 1076.37 1780.5 848 1780.5 619.63 1780.5 434.5 1595.37 434.5 1367Z" stroke="#172C51" stroke-width="4.58333" stroke-miterlimit="8" fill="#FFFFFF" fill-rule="evenodd"/><text fill="#FFFFFF" font-family="Bebas Neue,Bebas Neue_MSFontService,sans-serif" font-weight="400" font-size="92" transform="matrix(1 0 0 1 1610.4 1687)">C O D E , L e a r n,  E n t e r t a I n</text><path d="M1274.5 1661.5 1572.72 1661.5" stroke="#FFFFFF" stroke-width="6.875" stroke-miterlimit="8" fill="none" fill-rule="evenodd"/><path d="M2581.5 1661.5 2879.72 1661.5" stroke="#FFFFFF" stroke-width="6.875" stroke-miterlimit="8" fill="none" fill-rule="evenodd"/><path d="M1286.5 1488.92 1430.62 1488.92 1433.81 1549.16 1434.36 1549.05 1434.36 1549.5 1286.5 1549.5ZM1420.24 1231.63C1491.76 1228.11 1551.96 1296.92 1554.42 1385.02 1556.53 1460.14 1515.9 1525.18 1459.08 1544.02L1434.36 1549.05 1434.36 1488.92 1430.62 1488.92 1430.59 1488.45C1466.87 1484.45 1494.57 1440.05 1493.5 1387.61 1492.38 1332.71 1460.26 1289.8 1422.21 1292.37ZM1286.5 1231.5 1418.87 1231.5 1418.87 1292.08 1286.5 1292.08Z" stroke="#FFFFFF" stroke-width="4.58333" stroke-miterlimit="8" fill="#FFFFFF" fill-rule="evenodd"/><rect x="1805.5" y="1233.5" width="61.0002" height="218" stroke="#FFFFFF" stroke-width="4.58333" stroke-miterlimit="8" fill="#FFFFFF"/><path d="M1603.58 1451.71C1613.52 1451.98 1624.32 1452.1 1635.12 1452.23L1661.11 1452.65 1661.11 1452.71C1661.11 1481.05 1691.32 1504.03 1728.6 1504.03L1731.5 1503.59 1730.6 1556.5C1701.41 1556.19 1673.23 1548.1 1650.66 1533.54 1619.61 1513.53 1602.2 1483.27 1603.58 1451.71ZM1603.5 1233.5 1661.48 1233.5 1661.11 1236.36 1661.11 1451.25 1603.5 1451.25Z" stroke="#FFFFFF" stroke-width="4.58333" stroke-miterlimit="8" fill="#FFFFFF" fill-rule="evenodd"/><rect x="2303.5" y="1358.5" width="210" height="55" stroke="#FFFFFF" stroke-width="4.58333" stroke-miterlimit="8" fill="#FFFFFF"/><rect x="2292.5" y="1487.5" width="232" height="61.0002" stroke="#FFFFFF" stroke-width="4.58333" stroke-miterlimit="8" fill="#FFFFFF"/><rect x="2584" y="1443" width="55" height="108" fill="#FFFFFF"/><path d="M0 108 61.574 0 129 0 67.4259 108Z" fill="#FFFFFF" fill-rule="evenodd" transform="matrix(-1 0 0 1 2835 1443)"/><path d="M2292 1225 2588.45 1225 2588.45 1225 2638.41 1225 2638.41 1225 2747.86 1225C2787.7 1225 2820 1272.46 2820 1331 2820 1389.55 2787.7 1437 2747.86 1437L2638.41 1437 2583.43 1437 2583.43 1380.23 2638.41 1380.23 2731.66 1380.23C2756.4 1380.23 2776.45 1359.85 2776.45 1334.7 2776.45 1309.56 2756.4 1289.18 2731.66 1289.18L2638.41 1289.18 2638.41 1289.18 2583.43 1289.18 2583.43 1289.1 2292 1289.1Z" fill="#FFFFFF" fill-rule="evenodd"/><rect x="3163.5" y="1231.5" width="231" height="60.9999" stroke="#FFFFFF" stroke-width="4.58333" stroke-miterlimit="8" fill="#FFFFFF"/><rect x="3163.5" y="1489.5" width="231" height="61.0002" stroke="#FFFFFF" stroke-width="4.58333" stroke-miterlimit="8" fill="#FFFFFF"/><path d="M2978.71 1229.68C3047.36 1226.26 3106.26 1270.86 3110.29 1329.3 3110.43 1331.36 3110.5 1333.43 3110.5 1335.5L3057.5 1335.5C3057.5 1306.23 3025.49 1282.5 2986 1282.5 2984.78 1282.5 2983.57 1282.52 2982.36 1282.57Z" stroke="#FFFFFF" stroke-width="4.58333" stroke-miterlimit="8" fill="#FFFFFF" fill-rule="evenodd"/><rect x="3174.5" y="1367.5" width="210" height="55" stroke="#FFFFFF" stroke-width="4.58333" stroke-miterlimit="8" fill="#FFFFFF"/><path d="M129.462 345.327 103.643 345.506 54.1902 345.851 27.4158 346.037 27.3653 345.889 50.4793 332.463 79.2083 315.776 80.5018 315.024 81.9262 316.63C86.2953 319.914 92.3792 320.464 97.4022 317.547L98.1725 316.717 106.472 324.305ZM74.9549 251.358 81.8243 281.744 84.3042 292.712 83.2016 292.97C78.1786 295.888 75.6426 301.445 76.3298 306.867L77.0195 308.9 75.7257 309.652 46.9967 326.339 23.8827 339.765 23.7789 339.647 37.2061 316.482 62.0067 273.697ZM189.813 251.547 179.493 269.545 154.895 312.448 139.372 339.521 138.855 339.304C137.691 339.299 136.526 339.515 135.429 339.954L134.223 340.746 110.921 319.439 102.658 311.884 102.979 311.537C104.155 309.105 104.618 306.361 104.274 303.65L103.584 301.616 112.81 296.258 155.573 271.419 189.175 251.901 188.948 251.511 189.004 251.478 187.582 249.03ZM186.317 245.399 187.421 248.653 187.426 248.659 187.51 248.906 185.692 245.777 152.091 265.295 109.327 290.134 100.102 295.493 98.6776 293.887C96.4931 292.245 93.8797 291.286 91.1848 291.103L90.724 291.211 88.255 280.29 81.2925 249.492 82.5783 248.837C83.5029 248.102 84.2682 247.197 84.84 246.183L84.9075 245.627 116.115 245.557 165.569 245.445ZM267.66 299.125 267.065 300.353 266.747 305.091 266.428 304.116 229.49 316.18 182.48 331.534 145.882 343.486 145.389 342.281 160.614 315.727 185.213 272.825 195.352 255.141 196.066 255.487C199.535 256.407 203.355 256.004 206.704 254.058L208.866 252.141ZM183.557 154.206 195.24 228.554 192.503 229.482C189.155 231.427 186.912 234.546 185.992 238.015L185.939 238.807 165.555 238.852 116.1 238.964 85.4913 239.033 84.6884 238.008 113.204 212.139 149.832 178.911 178.612 152.803 177.923 152.043 182.196 154.114ZM377.425 343.489 351.802 343.799 302.352 344.397 269.13 344.799 263.496 344.868 230.275 345.27 180.824 345.868 159.018 346.132 184.526 337.801 231.537 322.447 268.306 310.438 268.494 310.991C272.384 317.688 280.967 319.964 287.665 316.074 289.339 315.101 290.737 313.835 291.831 312.379L292.38 311.246 318.045 320.977 364.288 338.508ZM199.404 36.8799 197.222 50.7589 189.54 99.6128 185.276 126.727 184.02 126.643C182.213 126.872 180.421 127.459 178.747 128.431 172.049 132.322 169.773 140.905 173.664 147.602L174.051 148.039 145.402 174.028 108.774 207.256 88.8988 225.286 99.9319 206.476 124.952 163.817 141.761 135.159 144.612 130.299 161.42 101.641 186.441 58.9829ZM331.294 244.639 331.355 245.092 287.31 291.891 284.215 290.391C280.746 289.471 276.925 289.875 273.577 291.82L271.445 293.71 212.639 246.716 213.216 245.526 213.257 244.914 242.981 244.914 292.436 244.914 331.294 244.914ZM262.414 125.926 262.175 125.789 242.922 159.543 218.42 202.501 203.693 228.32 203.142 228.053 201.821 227.965 190.136 153.6 192.834 152.685C196.183 150.74 198.426 147.622 199.346 144.153L199.576 140.721 262.051 125.649ZM391.68 337.877 389.319 340.947 366.625 332.343 320.383 314.812 294.351 304.942 294.536 302.177C294.307 300.37 293.72 298.577 292.748 296.903L292.213 296.301 336.32 249.436 336.972 249.933C338.097 250.232 339.279 250.315 340.451 250.167L340.687 250.087 355.97 276.398 380.81 319.162ZM211.342 27.2774 222.213 45.9924 247.052 88.756 262.335 115.068 262.149 115.233C261.439 116.178 260.927 117.246 260.628 118.371L260.737 119.184 198.176 134.277 197.917 133.515C196.945 131.84 195.679 130.442 194.223 129.348L191.728 128.139 196.053 100.637 203.735 51.7834 207.505 27.8078ZM220.035 9.39627C217.477 2.08548 209.476-1.76745 202.166 0.790672 194.855 3.34879 191.002 11.3491 193.56 18.6599 194.2 20.4875 195.179 22.0989 196.404 23.4484L198.654 25.1275 180.754 55.6474 155.733 98.3054 138.925 126.963 136.074 131.824 119.265 160.482 94.2449 203.14 76.8607 232.779 74.475 232.953C69.6359 234.302 66.8066 239.318 68.1554 244.157L70.0825 246.617 56.3027 270.39 31.502 313.176 18.2139 336.101 17.6205 335.813C14.1513 334.894 10.3311 335.297 6.98251 337.242 0.285096 341.132-1.99081 349.716 1.89938 356.413L1.90496 356.419 2.01223 356.736C5.90242 363.433 14.4857 365.709 21.1831 361.819 22.8575 360.846 24.2555 359.58 25.35 358.124L26.607 355.53 26.6477 355.487 26.6576 355.426 27.695 353.286 27.7391 352.628 54.2361 352.444 103.689 352.099 131.167 351.908 132.349 354.801C135.884 358.37 141.643 358.398 145.212 354.863L146.545 352.876 180.904 352.461 230.354 351.862 263.576 351.46 269.21 351.392 302.431 350.99 351.882 350.392 387.262 349.963 387.605 352.75C388.171 354.482 389.085 356.132 390.356 357.593 395.439 363.437 404.297 364.054 410.141 358.971 415.985 353.888 416.602 345.03 411.519 339.186 408.978 336.264 405.493 334.648 401.912 334.399L397.594 334.931 386.511 315.851 361.671 273.087 346.388 246.775 346.574 246.61C348.704 243.776 349.061 239.831 347.169 236.573 344.645 232.229 339.079 230.753 334.735 233.276 333.649 233.907 332.742 234.728 332.032 235.672L330.748 238.321 292.436 238.321 242.981 238.321 212.952 238.321 211.787 234.888 211.782 234.881 211.674 234.565 209.269 231.852 224.147 205.768 248.649 162.81 267.631 129.53 270.568 129.727C271.741 129.579 272.903 129.198 273.989 128.567 278.333 126.044 279.809 120.477 277.286 116.133 275.393 112.875 271.789 111.231 268.272 111.676L268.036 111.756 252.753 85.4446 227.914 42.681 216.831 23.6005 219.433 20.1129C220.99 16.8791 221.314 13.0516 220.035 9.39627Z" fill="url(#fill0)" fill-rule="evenodd" transform="matrix(-0.502269 -0.864711 -0.864711 0.502269 2389.37 1400.62)"/><path d="M435 1370C435 1143.56 618.787 960 845.5 960 1072.21 960 1256 1143.56 1256 1370 1256 1596.44 1072.21 1780 845.5 1780 618.787 1780 435 1596.44 435 1370Z" stroke="url(#stroke1)" stroke-width="27.5" stroke-miterlimit="8" fill="none" fill-rule="evenodd"/><path d="M965.963 1689.07C969.542 1690.14 972.71 1692.58 974.621 1696.13 978.441 1703.24 975.781 1712.09 968.68 1715.91 961.578 1719.73 952.724 1717.07 948.904 1709.97 945.083 1702.87 947.743 1694.01 954.845 1690.19 958.395 1688.28 962.384 1687.99 965.963 1689.07ZM829.966 1658.8C833.673 1658.33 837.559 1659.28 840.744 1661.75 843.929 1664.23 845.81 1667.75 846.276 1671.46 846.743 1675.17 845.796 1679.06 843.323 1682.24 838.378 1688.61 829.205 1689.77 822.835 1684.82 816.466 1679.87 815.311 1670.7 820.256 1664.33 822.729 1661.15 826.258 1659.27 829.966 1658.8ZM753.062 1658.43C761.126 1658.43 767.663 1664.96 767.663 1673.03 767.663 1681.09 761.126 1687.63 753.062 1687.63 744.998 1687.63 738.461 1681.09 738.461 1673.03 738.461 1664.96 744.998 1658.43 753.062 1658.43ZM657.462 1657.83C661.17 1658.3 664.7 1660.18 667.172 1663.37 669.644 1666.55 670.592 1670.44 670.125 1674.15 669.659 1677.85 667.777 1681.38 664.593 1683.86 658.223 1688.8 649.05 1687.65 644.105 1681.28 639.16 1674.91 640.315 1665.73 646.684 1660.79 649.869 1658.32 653.755 1657.37 657.462 1657.83ZM963.784 1616.13C971.848 1616.13 978.386 1622.67 978.386 1630.74 978.386 1638.8 971.848 1645.34 963.784 1645.34 955.721 1645.34 949.183 1638.8 949.183 1630.74 949.183 1622.67 955.721 1616.13 963.784 1616.13ZM1059.39 1615.54C1063.09 1615.08 1066.98 1616.02 1070.16 1618.5 1076.53 1623.44 1077.69 1632.61 1072.74 1638.98 1067.8 1645.35 1058.62 1646.51 1052.25 1641.56 1049.07 1639.09 1047.19 1635.56 1046.72 1631.85 1046.26 1628.15 1047.2 1624.26 1049.68 1621.07 1052.15 1617.89 1055.68 1616.01 1059.39 1615.54ZM645.329 1583.19C653.393 1583.19 659.93 1589.72 659.93 1597.79 659.93 1605.85 653.393 1612.39 645.329 1612.39 637.265 1612.39 630.727 1605.85 630.727 1597.79 630.727 1589.72 637.265 1583.19 645.329 1583.19ZM893.007 1579.8C901.071 1579.8 907.608 1586.34 907.608 1594.4 907.608 1602.46 901.071 1609 893.007 1609 884.943 1609 878.406 1602.46 878.406 1594.4 878.406 1586.34 884.943 1579.8 893.007 1579.8ZM592.162 1541.03C599.694 1543.91 603.466 1552.35 600.586 1559.88 597.707 1567.41 589.266 1571.19 581.734 1568.31 574.202 1565.43 570.43 1556.99 573.309 1549.45 576.189 1541.92 584.63 1538.15 592.162 1541.03ZM711.965 1515.56C719.496 1518.44 723.268 1526.88 720.389 1534.41 717.509 1541.95 709.069 1545.72 701.536 1542.84 694.004 1539.96 690.233 1531.52 693.112 1523.99 695.991 1516.45 704.432 1512.68 711.965 1515.56ZM831.082 1497.7C839.146 1497.7 845.683 1504.23 845.683 1512.3 845.683 1520.36 839.146 1526.9 831.082 1526.9 823.018 1526.9 816.481 1520.36 816.481 1512.3 816.48 1504.24 823.018 1497.7 831.082 1497.7ZM771.653 1455.6C779.717 1455.6 786.254 1462.14 786.254 1470.2 786.254 1478.27 779.717 1484.8 771.653 1484.8 763.589 1484.8 757.051 1478.27 757.051 1470.2 757.051 1462.14 763.589 1455.6 771.653 1455.6ZM664.213 1445.86C671.746 1448.74 675.517 1457.19 672.638 1464.72 669.758 1472.25 661.318 1476.02 653.785 1473.14 646.253 1470.26 642.481 1461.82 645.361 1454.29 648.24 1446.76 656.681 1442.98 664.213 1445.86ZM715.599 1434.9 745.498 1457.72 744.745 1458.84C743.268 1462.33 742.451 1466.17 742.451 1470.2 742.451 1482.3 749.805 1492.68 760.286 1497.11L763.533 1497.77 763.533 1589.45 672.849 1589.45 672.237 1586.42C667.803 1575.94 657.425 1568.58 645.329 1568.58 629.201 1568.58 616.127 1581.66 616.127 1597.79L618.174 1607.93 567.959 1656.77 562.864 1652.14C517.736 1607.01 483.368 1551.12 463.938 1488.65L455.549 1456.03 475.918 1456.1 560.706 1542.6 559.671 1544.24C553.911 1559.3 561.455 1576.19 576.52 1581.95 591.585 1587.7 608.466 1580.16 614.225 1565.1 619.984 1550.03 612.44 1533.15 597.376 1527.39 589.843 1524.51 581.857 1524.96 575.033 1528.01L570.339 1531.3 481.05 1440.2 481.052 1439.62 452.445 1439.52 451.994 1436.58 527.078 1437.76 621.697 1537.65 621.69 1538.1 679.601 1539.01 680.089 1541.12C683.138 1547.94 688.791 1553.6 696.323 1556.48 711.388 1562.24 728.269 1554.69 734.028 1539.63 739.787 1524.56 732.243 1507.68 717.179 1501.92 702.114 1496.16 685.233 1503.71 679.474 1518.77L679.171 1520.58 625.23 1519.73 577.437 1469.28 632.032 1470.1 632.338 1471.42C635.387 1478.24 641.039 1483.9 648.571 1486.78 663.636 1492.54 680.517 1485 686.277 1469.93 689.156 1462.4 688.71 1454.41 685.661 1447.59L684.414 1445.81 689.905 1438.16 696.999 1440.8C702.615 1441.12 708.263 1439.82 713.205 1437ZM696.765 1397.17C700.469 1396.67 704.362 1397.59 707.567 1400.03 713.978 1404.93 715.209 1414.09 710.317 1420.5 705.425 1426.91 696.262 1428.14 689.851 1423.25 683.441 1418.36 682.21 1409.19 687.102 1402.78 689.548 1399.58 693.062 1397.67 696.765 1397.17ZM726.9 1306.75C734.432 1309.63 738.204 1318.07 735.324 1325.6 732.445 1333.13 724.004 1336.9 716.472 1334.02 708.94 1331.14 705.168 1322.7 708.047 1315.17 710.927 1307.64 719.368 1303.87 726.9 1306.75ZM559.159 1302.61C567.223 1302.61 573.76 1309.15 573.76 1317.21 573.76 1325.28 567.223 1331.81 559.159 1331.81 555.127 1331.81 551.477 1330.18 548.834 1327.54 546.192 1324.89 544.558 1321.24 544.558 1317.21 544.558 1309.15 551.095 1302.61 559.159 1302.61ZM826.902 1224.29C830.622 1223.93 834.478 1224.99 837.589 1227.56 843.811 1232.69 844.697 1241.89 839.568 1248.11 834.438 1254.34 825.236 1255.22 819.013 1250.09 812.791 1244.96 811.906 1235.76 817.035 1229.54 819.6 1226.43 823.183 1224.65 826.902 1224.29ZM508.5 1203.9C512.161 1203.15 516.107 1203.8 519.471 1206.02 526.197 1210.47 528.045 1219.53 523.598 1226.25 519.15 1232.98 510.091 1234.83 503.365 1230.38 496.638 1225.93 494.791 1216.88 499.238 1210.15 501.462 1206.79 504.838 1204.64 508.5 1203.9ZM689.349 1203.56C697.413 1203.56 703.951 1210.1 703.951 1218.16 703.951 1226.22 697.413 1232.76 689.349 1232.76 685.317 1232.76 681.667 1231.13 679.025 1228.48 676.382 1225.84 674.748 1222.19 674.748 1218.16 674.748 1210.1 681.285 1203.56 689.349 1203.56ZM1094.95 1171.84C1098.66 1172.31 1102.19 1174.19 1104.66 1177.37 1109.6 1183.74 1108.45 1192.92 1102.08 1197.86 1098.89 1200.33 1095.01 1201.28 1091.3 1200.81 1087.59 1200.35 1084.06 1198.47 1081.59 1195.28 1079.12 1192.1 1078.17 1188.21 1078.64 1184.5 1079.1 1180.8 1080.99 1177.27 1084.17 1174.79 1087.35 1172.32 1091.24 1171.37 1094.95 1171.84ZM995.7 1171.02C1003.76 1171.02 1010.3 1177.56 1010.3 1185.62 1010.3 1193.68 1003.76 1200.22 995.7 1200.22 987.636 1200.22 981.099 1193.68 981.099 1185.62 981.099 1177.56 987.636 1171.02 995.7 1171.02ZM891.247 1149.51C899.307 1149.74 905.651 1156.47 905.414 1164.53 905.296 1168.56 903.556 1172.16 900.837 1174.73 898.119 1177.29 894.422 1178.82 890.392 1178.7 886.362 1178.58 882.761 1176.84 880.197 1174.12 877.633 1171.4 876.106 1167.71 876.224 1163.68 876.46 1155.62 883.186 1149.27 891.247 1149.51ZM699.842 1118.14C707.906 1118.14 714.444 1124.67 714.444 1132.74 714.444 1140.8 707.906 1147.34 699.842 1147.34 691.779 1147.34 685.241 1140.8 685.241 1132.74 685.241 1124.67 691.779 1118.14 699.842 1118.14ZM598.667 1110.1C602.322 1110.88 605.68 1113.05 607.874 1116.44 610.068 1119.82 610.684 1123.77 609.904 1127.43 609.126 1131.08 606.953 1134.44 603.57 1136.63 596.805 1141.02 587.763 1139.09 583.374 1132.33 578.986 1125.56 580.913 1116.52 587.677 1112.13 591.06 1109.94 595.012 1109.32 598.667 1110.1ZM1034.62 1096.84C1038.26 1095.99 1042.22 1096.53 1045.65 1098.65 1052.5 1102.9 1054.61 1111.91 1050.36 1118.76 1046.1 1125.61 1037.1 1127.72 1030.25 1123.47 1023.4 1119.21 1021.29 1110.21 1025.54 1103.36 1027.67 1099.94 1030.98 1097.7 1034.62 1096.84ZM614.201 1044.91 596.5 1095.73 590.517 1095.62C586.782 1096.28 583.114 1097.69 579.732 1099.88 569.584 1106.47 564.879 1118.28 566.864 1129.49L568.034 1132.45 532.835 1155.28 513.303 1148.3 514.143 1146.92C535.654 1115.07 561.64 1086.51 591.199 1062.11ZM895.707 1013.09C903.268 1010.28 911.67 1014.14 914.475 1021.7 915.878 1025.48 915.615 1029.47 914.057 1032.87 912.499 1036.26 909.645 1039.07 905.865 1040.47 902.084 1041.87 898.094 1041.61 894.697 1040.05 891.301 1038.49 888.499 1035.64 887.096 1031.86 884.291 1024.3 888.146 1015.89 895.707 1013.09ZM845 971 871.8 972.353 883.477 1003.83 880.769 1005.5C872.485 1013.31 869.2 1025.6 873.407 1036.94 876.212 1044.5 881.816 1050.2 888.609 1053.32 895.402 1056.44 903.383 1056.96 910.944 1054.16L920.451 1048.27 968.119 1077.85 968.306 1077.55 1010.2 1103.55 1009.09 1106.53C1007.33 1117.77 1012.27 1129.5 1022.55 1135.87 1036.26 1144.38 1054.26 1140.16 1062.76 1126.46 1071.27 1112.75 1067.05 1094.75 1053.35 1086.25 1043.07 1079.87 1030.37 1080.65 1021.08 1087.21L1018.9 1089.53 975.642 1062.69 975.454 1062.99 928.556 1033.89 929.968 1028.08C930.137 1024.29 929.568 1020.4 928.165 1016.62 923.958 1005.28 913.453 998.108 902.084 997.597L898.938 998.092 889.883 973.684 925.412 979.107C1003.33 995.051 1072.98 1033.71 1127.14 1087.86L1142.69 1104.98 1142.96 1137.2 1109.82 1162.93 1107.41 1160.85C1097.48 1155.29 1084.77 1155.84 1075.22 1163.26 1072.03 1165.73 1069.5 1168.73 1067.64 1172.04L1065.89 1177.37 1023.24 1177.37 1022.61 1174.25C1018.17 1163.77 1007.8 1156.42 995.701 1156.42 979.573 1156.42 966.498 1169.49 966.498 1185.62 966.498 1201.75 979.573 1214.82 995.701 1214.82 1007.8 1214.82 1018.17 1207.47 1022.61 1196.99L1023.24 1193.87 1064.91 1193.87 1070.06 1204.24C1075 1210.61 1082.06 1214.37 1089.48 1215.3 1096.89 1216.24 1104.66 1214.34 1111.03 1209.39 1120.59 1201.98 1124.28 1189.8 1121.35 1178.81L1119.93 1175.95 1158.78 1145.79 1159.52 1145.79 1159.52 1145.22 1160.15 1144.73 1159.51 1143.91 1159.35 1124.84 1175.86 1146.92C1218.88 1210.6 1244 1287.36 1244 1370 1244 1480.18 1199.34 1579.93 1127.14 1652.14L1116.08 1662.19 1088.02 1640.4 1089.43 1637.55C1092.36 1626.55 1088.67 1614.38 1079.12 1606.96 1072.75 1602.02 1064.98 1600.12 1057.56 1601.06 1050.15 1601.99 1043.09 1605.75 1038.14 1612.12L1032.99 1622.49 991.323 1622.49 990.693 1619.37C986.259 1608.89 975.881 1601.53 963.785 1601.53 947.657 1601.53 934.582 1614.61 934.582 1630.74 934.582 1646.86 947.657 1659.94 963.785 1659.94 975.881 1659.94 986.259 1652.58 990.693 1642.1L991.323 1638.98 1033.98 1638.98 1035.73 1644.31C1037.58 1647.62 1040.12 1650.62 1043.3 1653.1 1052.86 1660.51 1065.56 1661.07 1075.49 1655.51L1077.9 1653.43 1103.69 1673.45 1098.8 1677.89C1069.24 1702.28 1036.11 1722.5 1000.31 1737.64L991.475 1740.88 982.07 1723.4 984.521 1721.36C991.651 1712.49 993.211 1699.87 987.48 1689.22 981.749 1678.56 970.355 1672.91 959.025 1673.97 955.248 1674.32 951.478 1675.42 947.928 1677.33 933.724 1684.97 928.405 1702.68 936.045 1716.89 941.776 1727.54 953.169 1733.19 964.5 1732.13L967.547 1731.21 975.829 1746.6 963.65 1751.06C951.156 1754.95 938.399 1758.24 925.412 1760.89L901.253 1764.58 901.253 1621.94 904.374 1621.31C914.855 1616.87 922.21 1606.5 922.21 1594.4 922.21 1578.27 909.135 1565.2 893.007 1565.2 876.879 1565.2 863.805 1578.27 863.805 1594.4 863.805 1606.5 871.159 1616.87 881.64 1621.31L882.682 1621.52 882.682 1767.1 845 1769C803.682 1769 763.831 1762.72 726.349 1751.06L693.035 1738.87 789.375 1739.67 790.196 1740.31 790.682 1739.68 791.248 1739.69 791.254 1738.94 821.415 1700.09 824.267 1701.51C835.265 1704.44 847.439 1700.75 854.856 1691.19 859.802 1684.82 861.697 1677.05 860.763 1669.64 859.83 1662.22 856.068 1655.16 849.698 1650.22L839.682 1645.25 839.682 1589.15 839.328 1589.15 839.328 1539.84 842.449 1539.21C852.93 1534.77 860.285 1524.4 860.285 1512.3 860.285 1496.17 847.21 1483.1 831.082 1483.1 814.954 1483.1 801.88 1496.17 801.88 1512.3 801.879 1524.4 809.234 1534.77 819.715 1539.21L822.837 1539.84 822.836 1590.75 823.191 1590.75 823.191 1645.94 817.506 1647.81C814.197 1649.66 811.195 1652.19 808.723 1655.38 801.305 1664.93 800.75 1677.64 806.31 1687.57L808.389 1689.98 782.66 1723.12 657.38 1722.08 654.813 1720.84 627.758 1704.41 638.943 1695.72 641.355 1697.8C651.284 1703.36 663.992 1702.81 673.547 1695.39 676.732 1692.92 679.265 1689.91 681.118 1686.61L682.869 1681.27 725.525 1681.27 726.155 1684.4C730.588 1694.88 740.966 1702.23 753.062 1702.23 769.191 1702.23 782.265 1689.16 782.265 1673.03 782.265 1656.9 769.191 1643.83 753.062 1643.83 740.966 1643.83 730.588 1651.18 726.155 1661.66L725.525 1664.78 683.856 1664.78 678.705 1654.41C673.76 1648.04 666.701 1644.28 659.286 1643.35 651.871 1642.41 644.1 1644.31 637.73 1649.25 628.175 1656.67 624.488 1668.85 627.414 1679.84L628.83 1682.7 613.522 1694.58 591.199 1677.89 582.926 1670.37 631.555 1623.07 633.962 1624.69C637.456 1626.17 641.297 1626.99 645.329 1626.99 653.393 1626.99 660.694 1623.72 665.978 1618.44L671.908 1609.64 782.265 1609.64 782.265 1609.15 783.719 1609.15 783.719 1496.64 792.302 1490.85C797.587 1485.57 800.856 1478.27 800.856 1470.2 800.856 1454.08 787.781 1441 771.653 1441 767.621 1441 763.78 1441.82 760.286 1443.3L756.833 1445.62 725.604 1421.79 726.996 1418.93C729.83 1407.91 726.041 1395.77 716.425 1388.43 703.604 1378.64 685.279 1381.1 675.495 1393.93 668.157 1403.54 667.707 1416.25 673.35 1426.14L675.187 1428.23 671.417 1433.49 669.427 1432.23C654.362 1426.47 637.481 1434.01 631.722 1449.08L630.966 1453.59 561.589 1452.54 532.416 1421.74 532.426 1421.16 449.442 1419.85 449.086 1417.52 540.608 1420.04 540.624 1419.46 637.596 1325.58 693.826 1327.14 695.025 1332.3C698.074 1339.12 703.726 1344.78 711.258 1347.66 726.323 1353.42 743.204 1345.88 748.963 1330.81 754.722 1315.75 747.179 1298.87 732.114 1293.11 729.289 1292.03 726.401 1291.42 723.534 1291.23 714.933 1290.68 706.524 1294 700.612 1300.16L695.175 1308.75 634.855 1307.08 634.843 1307.53 535.984 1403.23 448.208 1400.81 447.554 1400.79 446 1370C446 1356.23 446.698 1342.62 448.06 1329.2L449.852 1317.46 457.915 1314.83 458.284 1315.07 503.921 1246.05 506.059 1246.92C517.248 1249 529.106 1244.4 535.778 1234.31 544.673 1220.85 540.977 1202.74 527.524 1193.84 524.161 1191.62 520.506 1190.18 516.777 1189.49 505.588 1187.41 493.73 1192.01 487.059 1202.1 480.387 1212.19 480.798 1224.9 487.096 1234.38L488.731 1236.01 454.616 1287.6 463.938 1251.35C471.71 1226.36 481.872 1202.43 494.157 1179.81L504.562 1162.69 533.734 1173.12 534.299 1173.99 534.964 1173.56 535.497 1173.75 535.747 1173.05 577.009 1146.29 579.236 1148.56C588.66 1154.94 601.369 1155.46 611.517 1148.88 618.282 1144.49 622.629 1137.78 624.186 1130.47 625.743 1123.16 624.513 1115.26 620.124 1108.49L612.302 1100.5 630.755 1047.52 630.42 1047.4 636.352 1030.37 654.813 1019.16C666.12 1013.01 677.757 1007.4 689.691 1002.36L689.75 1002.33 689.75 1105.57 688.476 1105.83C677.995 1110.26 670.64 1120.64 670.64 1132.74 670.64 1136.77 671.457 1140.61 672.935 1144.11L673.976 1145.65 551.953 1238.77 550.914 1238.77 550.914 1239.56 550.464 1239.9 550.914 1240.49 550.914 1289.67 547.793 1290.3C537.311 1294.74 529.957 1305.12 529.957 1317.21 529.957 1325.28 533.226 1332.58 538.51 1337.86 543.795 1343.15 551.095 1346.42 559.16 1346.42 575.288 1346.42 588.362 1333.34 588.362 1317.21 588.362 1305.12 581.008 1294.74 570.527 1290.3L567.405 1289.67 567.405 1247.72 685.472 1157.62 688.476 1159.65C691.97 1161.12 695.811 1161.94 699.843 1161.94 715.971 1161.94 729.045 1148.87 729.045 1132.74 729.045 1120.64 721.691 1110.26 711.21 1105.83L709.936 1105.57 709.936 994.946 726.349 988.938 747.013 983.625 846.398 1063.56 846.464 1063.48 861.199 1075.42 843.91 1097.67 844.28 1097.96 758.843 1209.91 716.888 1209.91 716.257 1206.79C711.824 1196.31 701.446 1188.96 689.35 1188.96 673.222 1188.96 660.147 1202.03 660.147 1218.16 660.147 1226.22 663.416 1233.52 668.7 1238.81 673.985 1244.09 681.286 1247.36 689.35 1247.36 701.446 1247.36 711.824 1240.01 716.257 1229.53L716.888 1226.41 766.071 1226.41 766.66 1226.85 767.003 1226.41 767.796 1226.41 767.796 1225.37 865.316 1097.57 865.035 1097.36 874.013 1085.81 884.612 1094.4 883.383 1136.34 880.245 1136.87C869.638 1141 861.983 1151.16 861.63 1163.25 861.511 1167.28 862.216 1171.14 863.59 1174.68L866.589 1179.42 839.456 1212.33 836.647 1210.83C825.739 1207.59 813.463 1210.92 805.769 1220.25 795.51 1232.69 797.281 1251.1 809.726 1261.36 822.17 1271.62 840.575 1269.85 850.834 1257.4 858.529 1248.07 859.456 1235.38 854.188 1225.29L852.181 1222.82 878.687 1190.67 889.964 1193.29C898.025 1193.53 905.418 1190.48 910.855 1185.35 916.292 1180.22 919.773 1173.02 920.01 1164.96 920.363 1152.87 913.316 1142.28 902.969 1137.54L899.867 1136.82 901.307 1087.66 901.774 1087.08 901.334 1086.72 901.357 1085.93 900.319 1085.9 775.437 984.683 775.122 985.071 767.209 978.706 804.204 973.06C817.617 971.698 831.227 971 845 971Z" fill-rule="evenodd"/><path d="M1174.5 1231.5 1247.5 1231.5 1247.5 1291.5 1174.5 1291.5 1174.5 1231.5Z" stroke="#000000" stroke-width="4.58333" stroke-miterlimit="8" fill="none" fill-rule="evenodd"/><path d="M1174.5 1489.5 1247.5 1489.5 1247.5 1551.5 1174.5 1551.5 1174.5 1489.5Z" stroke="#000000" stroke-width="4.58333" stroke-miterlimit="8" fill="none" fill-rule="evenodd"/><path d="M953.338 1528.26C945.266 1528.26 938.722 1534.78 938.722 1542.84 938.722 1550.89 945.266 1557.42 953.338 1557.42 961.41 1557.42 967.954 1550.89 967.954 1542.84 967.954 1534.78 961.41 1528.26 953.338 1528.26ZM977.031 1393.3C968.959 1393.3 962.415 1399.83 962.415 1407.88 962.415 1415.94 968.959 1422.47 977.031 1422.47 985.103 1422.47 991.646 1415.94 991.646 1407.88 991.646 1399.83 985.103 1393.3 977.031 1393.3ZM651.13 1349.72C643.058 1349.72 636.514 1356.25 636.514 1364.3 636.514 1372.35 643.058 1378.88 651.13 1378.88 659.202 1378.88 665.746 1372.35 665.746 1364.3 665.746 1356.25 659.202 1349.72 651.13 1349.72ZM651.13 1335.14C663.238 1335.14 673.627 1342.48 678.065 1352.95L678.347 1354.35 765.959 1354.35 765.959 1354.79 888.64 1451.92 1044.94 1451.92 1044.94 1451.98 1077.64 1451.98 1077.64 1467.38 1077.64 1467.38 1077.64 1488.56 1247 1488.56 1247 1550.95 1028.88 1550.95 1015.43 1550.95 1012.22 1550.95 1000.17 1550.95 1000.17 1551.07 980.903 1551.07 980.272 1554.19C975.835 1564.66 965.446 1572 953.338 1572 937.193 1572 924.106 1558.94 924.106 1542.84 924.106 1526.73 937.193 1513.68 953.338 1513.68 965.446 1513.68 975.835 1521.02 980.272 1531.49L980.903 1534.6 1012.22 1534.6 1012.22 1488.56 1012.57 1488.56 1012.57 1487.99 1032.21 1468.39 882.154 1468.39 882.154 1467.81 761.813 1372.53 678.696 1372.53 678.065 1375.65C673.627 1386.12 663.238 1393.46 651.13 1393.46 634.986 1393.46 621.898 1380.41 621.898 1364.3 621.898 1348.19 634.986 1335.14 651.13 1335.14ZM881.784 1283.29C873.712 1283.29 867.169 1289.82 867.169 1297.87 867.169 1305.92 873.712 1312.45 881.784 1312.45 889.856 1312.45 896.4 1305.92 896.4 1297.87 896.4 1289.82 889.856 1283.29 881.784 1283.29ZM626.232 1253.97C618.16 1253.97 611.616 1260.5 611.616 1268.55 611.616 1276.61 618.16 1283.14 626.232 1283.14 634.304 1283.14 640.848 1276.61 640.848 1268.55 640.848 1260.5 634.304 1253.97 626.232 1253.97ZM626.232 1239.39C638.34 1239.39 648.729 1246.74 653.166 1257.2L653.623 1259.46 736.452 1259.46 736.452 1259.9 859.133 1357.04 1015.43 1357.04 1015.43 1356.85 1233.24 1356.85 1233.24 1415.7 1015.43 1415.7 1015.43 1415.55 1004.71 1415.55 1003.97 1419.24C999.527 1429.7 989.139 1437.05 977.031 1437.05 960.886 1437.05 947.799 1423.99 947.799 1407.88 947.799 1391.78 960.886 1378.72 977.031 1378.72 989.139 1378.72 999.527 1386.07 1003.97 1396.53L1004.48 1399.08 1015.43 1399.08 1015.43 1373.5 852.647 1373.5 852.647 1372.92 732.306 1277.65 653.623 1277.65 653.166 1279.91C648.729 1290.37 638.34 1297.72 626.232 1297.72 610.088 1297.72 597 1284.66 597 1268.55 597 1252.45 610.088 1239.39 626.232 1239.39ZM1015.43 1231 1247 1231 1247 1291.61 1060.31 1291.61 1060.31 1306.87 909.194 1306.87 908.719 1309.22C904.281 1319.69 893.893 1327.03 881.784 1327.03 865.64 1327.03 852.553 1313.98 852.553 1297.87 852.553 1281.76 865.64 1268.71 881.784 1268.71 893.893 1268.71 904.281 1276.05 908.719 1286.52L909.505 1290.4 1015.43 1290.4Z" fill="url(#fill2)" fill-rule="evenodd"/><path d="M2863.63 1314.5 2924.2 1314.5C2924.2 1331.97 2936.38 1342.1 2960.27 1351.84 2983.36 1359.26 3108.32 1383.83 3115.8 1449.71 3117.2 1462.91 3116.42 1471.51 3114.21 1480.52 3104.48 1510.06 3073.07 1536.93 3042.34 1548.12 3011.61 1559.31 2965.27 1562.05 2929.83 1547.66 2884.02 1529.05 2855.72 1489.85 2857.59 1447.6L2915.81 1449.22C2923.03 1474.56 2940.01 1492.69 2957.42 1500.98 2974.84 1509.26 3004.75 1504.05 3020.3 1498.94 3035.78 1492 3047.5 1481.01 3050.73 1470.33L3050.73 1470.33C3053.55 1460.99 3050.47 1450.72 3043.04 1441.19L3041.93 1439.89 3041.55 1439.39 3040.83 1438.6 3039.6 1437.16C3030.97 1427.89 3018.21 1419.6 3002.91 1413.99L3000.92 1413.33 2992.01 1409.99C2956.19 1397.58 2916.19 1393.87 2897.48 1380.14 2866.38 1357.3 2863.63 1346.72 2863.63 1314.5Z" stroke="#FFFFFF" stroke-width="1.26348" stroke-miterlimit="8" fill="#FFFFFF" fill-rule="evenodd"/></g></svg>